<?xml version="1.0" encoding="utf-8"?>
<!-- Generator: Adobe Illustrator 25.2.1, SVG Export Plug-In . SVG Version: 6.00 Build 0)  -->
<svg version="1.1" id="Capa_1" xmlns="http://www.w3.org/2000/svg" xmlns:xlink="http://www.w3.org/1999/xlink" x="0px" y="0px"
	 viewBox="0 0 128 128" style="enable-background:new 0 0 128 128;" xml:space="preserve">
<style type="text/css">
	.st0{fill:#1E628F;}
	.st1{fill:#66B14A;}
</style>
<g>
	<path class="st0" d="M76.27,10.76c-20.58,8.9-32.89,25.7-33.55,51.54c-0.7,27.36,11.93,44.98,33.5,55.05
		c-4.79,2.23-9.53,2.34-14.24,1.8C40.49,116.7,23.8,99.05,19.47,74.43c-0.39-2.21,0.27-5.31-1.27-6.41
		c-1.45-1.03-3.83-0.3-5.81-0.33c-1.44-0.02-2.88,0.06-4.32-0.03c-1.83-0.12-3.48-0.24-3.54-3.37c-0.05-3.07,1.04-4.16,3.44-4.15
		c2.52,0.01,5.06-0.23,7.55,0.07c2.5,0.3,3.36-0.66,3.65-3.57c1.28-12.74,5.93-23.68,13.89-32.51C44.07,11.92,57.2,6.84,72.35,9.11
		C73.77,9.32,75.1,9.72,76.27,10.76z"/>
	<path class="st1" d="M72.41,99.45c3.6-3.07,6.79-5.74,9.3-9.33c3.31-4.73,5.42-10.12,6.45-16.05c0.3-1.75,0.71-2.54,2.35-2.49
		c4.22,0.11,8.45,0.03,12.68,0.04c0.97,0,2.19-0.19,1.81,1.71c-2.28,11.42-6.9,20.9-16.47,25.99
		C83.45,102.02,78.21,101.53,72.41,99.45z"/>
	<path class="st0" d="M90.5,67.69c-9.34,0-18.68,0.01-28.02,0c-2.81,0-4.35-1.34-4.37-3.74c-0.02-2.42,1.54-3.8,4.35-3.8
		c18.86-0.01,37.72,0.01,56.58-0.01c1.59,0,3.06,0.18,3.95,1.99c1.37,2.79-0.4,5.54-3.67,5.55C109.72,67.71,100.11,67.68,90.5,67.69
		z"/>
	<path class="st1" d="M73.16,28.43c5.65-2.63,11.18-2.47,16.56,0.73c8.54,5.08,12.9,13.8,15.17,24.28c0.37,1.7-0.26,2.06-1.46,2.05
		c-4.49,0-8.98,0-13.47,0.01c-0.89,0-1.48-0.2-1.7-1.45c-1.87-10.74-6.98-18.87-14.81-24.79C73.33,29.19,73.32,28.92,73.16,28.43z"
		/>
</g>
</svg>
