<?xml version="1.0" encoding="utf-8"?>
<!-- Generator: Adobe Illustrator 25.2.1, SVG Export Plug-In . SVG Version: 6.00 Build 0)  -->
<svg version="1.1" xmlns="http://www.w3.org/2000/svg" xmlns:xlink="http://www.w3.org/1999/xlink" x="0px" y="0px"
	 viewBox="0 0 133 40" style="enable-background:new 0 0 133 40;" xml:space="preserve">
<style type="text/css">
	.st0{fill:#1E628F;}
	.st1{fill:#66B14A;}
	.st2{fill:#FFFFFF;}
</style>
<g id="Capa_1">
	<g>
		<path class="st0" d="M29.56,5.49c-5.61,2.43-8.97,7.01-9.15,14.05c-0.19,7.46,3.25,12.26,9.13,15.01
			c-1.31,0.61-2.6,0.64-3.88,0.49c-5.86-0.67-10.41-5.48-11.59-12.19c-0.11-0.6,0.07-1.45-0.35-1.75c-0.4-0.28-1.04-0.08-1.58-0.09
			C11.75,21,11.36,21.02,10.97,21c-0.5-0.03-0.95-0.07-0.96-0.92c-0.01-0.84,0.28-1.13,0.94-1.13c0.69,0,1.38-0.06,2.06,0.02
			c0.68,0.08,0.92-0.18,0.99-0.97c0.35-3.47,1.62-6.45,3.79-8.86c3-3.33,6.58-4.71,10.71-4.09C28.87,5.09,29.24,5.2,29.56,5.49z"/>
		<path class="st1" d="M28.5,29.66c0.98-0.84,1.85-1.56,2.54-2.54c0.9-1.29,1.48-2.76,1.76-4.38c0.08-0.48,0.19-0.69,0.64-0.68
			c1.15,0.03,2.3,0.01,3.46,0.01c0.26,0,0.6-0.05,0.49,0.47c-0.62,3.11-1.88,5.7-4.49,7.08C31.51,30.36,30.09,30.23,28.5,29.66z"/>
		<path class="st0" d="M33.44,21.01c-2.55,0-5.09,0-7.64,0c-0.77,0-1.19-0.37-1.19-1.02c-0.01-0.66,0.42-1.04,1.19-1.04
			c5.14,0,10.28,0,15.42,0c0.43,0,0.83,0.05,1.08,0.54c0.37,0.76-0.11,1.51-1,1.51C38.67,21.01,36.05,21,33.44,21.01z"/>
		<path class="st1" d="M28.71,10.3c1.54-0.72,3.05-0.67,4.51,0.2c2.33,1.38,3.52,3.76,4.14,6.62c0.1,0.46-0.07,0.56-0.4,0.56
			c-1.22,0-2.45,0-3.67,0c-0.24,0-0.4-0.05-0.46-0.4c-0.51-2.93-1.9-5.14-4.04-6.76C28.75,10.51,28.75,10.44,28.71,10.3z"/>
	</g>
</g>
<g id="Capa_2">
	<g>
		<path class="st2" d="M49.36,27.74V12.26h5.31c1.75,0,3.08,0.35,4,1.05s1.37,1.75,1.37,3.14c0,0.71-0.19,1.35-0.57,1.91
			c-0.38,0.57-0.94,1.01-1.68,1.32c0.84,0.23,1.48,0.65,1.94,1.28c0.46,0.63,0.69,1.38,0.69,2.26c0,1.45-0.47,2.57-1.4,3.35
			c-0.93,0.78-2.27,1.17-4,1.17H49.36z M52.05,18.78h2.64c0.84,0,1.49-0.19,1.96-0.57c0.47-0.38,0.71-0.92,0.71-1.61
			c0-0.77-0.22-1.32-0.65-1.66s-1.12-0.51-2.04-0.51h-2.62V18.78z M52.05,20.75v4.84h2.99c0.84,0,1.5-0.21,1.98-0.63
			s0.71-1,0.71-1.74c0-1.61-0.82-2.43-2.47-2.47H52.05z"/>
		<path class="st2" d="M65.94,27.74h-2.68V12.26h2.68V27.74z"/>
		<path class="st2" d="M71.94,25.59h7.03v2.15h-9.72V12.26h2.69V25.59z"/>
		<path class="st2" d="M83.72,22v5.74h-2.69V12.26h5.92c1.73,0,3.1,0.45,4.12,1.35c1.02,0.9,1.53,2.09,1.53,3.58
			c0,1.52-0.5,2.7-1.49,3.54c-1,0.84-2.39,1.27-4.18,1.27H83.72z M83.72,19.83h3.23c0.96,0,1.69-0.23,2.19-0.68
			c0.5-0.45,0.75-1.1,0.75-1.95c0-0.84-0.26-1.5-0.77-2s-1.21-0.76-2.11-0.77h-3.31V19.83z"/>
		<path class="st2" d="M100.64,21.79h-3v5.96h-2.69V12.26h5.44c1.79,0,3.17,0.4,4.14,1.2c0.97,0.8,1.46,1.96,1.46,3.48
			c0,1.04-0.25,1.9-0.75,2.6c-0.5,0.7-1.2,1.24-2.09,1.61l3.48,6.45v0.14h-2.88L100.64,21.79z M97.64,19.62h2.76
			c0.91,0,1.62-0.23,2.13-0.69c0.51-0.46,0.77-1.08,0.77-1.88c0-0.83-0.24-1.47-0.71-1.92c-0.47-0.45-1.18-0.69-2.11-0.7h-2.84
			V19.62z"/>
		<path class="st2" d="M120.89,20.4c0,1.52-0.26,2.85-0.79,3.99c-0.53,1.15-1.27,2.02-2.25,2.64s-2.1,0.92-3.37,0.92
			c-1.25,0-2.37-0.31-3.35-0.92c-0.98-0.61-1.74-1.49-2.28-2.62c-0.54-1.13-0.81-2.44-0.81-3.92v-0.87c0-1.51,0.27-2.84,0.8-4
			s1.29-2.04,2.26-2.65s2.09-0.92,3.36-0.92c1.26,0,2.38,0.3,3.35,0.91s1.73,1.48,2.26,2.62s0.8,2.46,0.81,3.97V20.4z M118.2,19.6
			c0-1.71-0.32-3.03-0.97-3.94c-0.65-0.92-1.57-1.37-2.76-1.37c-1.16,0-2.07,0.46-2.73,1.37c-0.66,0.91-0.99,2.2-1,3.87v0.89
			c0,1.7,0.33,3.02,0.99,3.94c0.66,0.93,1.58,1.39,2.76,1.39c1.19,0,2.11-0.45,2.75-1.36s0.96-2.23,0.96-3.98V19.6z"/>
	</g>
</g>
</svg>
